<?xml version="1.0" standalone="no"?><!DOCTYPE svg PUBLIC "-//W3C//DTD SVG 1.1//EN" "http://www.w3.org/Graphics/SVG/1.1/DTD/svg11.dtd"><svg t="1775187008355" class="icon" viewBox="0 0 1024 1024" version="1.1" xmlns="http://www.w3.org/2000/svg" p-id="24006" xmlns:xlink="http://www.w3.org/1999/xlink" width="200" height="200"><path d="M915.264507 446.328301v-65.670675c0-36.264948-28.512381-65.670675-63.681368-65.670675H140.574642c-35.167964 0-63.681368 29.405727-63.681368 65.670675v262.682701c0 36.281321 28.513404 65.670675 63.681368 65.670676h711.00952c35.168987 0 63.681368-29.389354 63.681368-65.670676V577.669652c17.569144 0 31.840172-14.688537 31.840172-32.834826v-65.670675c-0.001023-18.11866-14.272052-32.835849-31.841195-32.83585m-31.841196 197.012026c0 18.148335-14.271028 32.834826-31.841196 32.834826H140.574642c-17.59882 0-31.841196-14.687514-31.841195-32.834826V380.658649c0-18.11866 14.242376-32.834826 31.841195-32.834826h711.00952c17.569144 0 31.840172 14.718213 31.840172 32.834826v262.681678h-0.001023z" fill="" p-id="24007"></path><path d="M801.112654 643.340327h-610.299817c-28.399817 0-51.421136-23.022343-51.421137-51.421136V430.413843c0-28.399817 23.022343-51.421136 51.421137-51.421136h610.299817c28.399817 0 51.421136 23.022343 51.421136 51.421136v161.504324c0.001023 28.399817-23.02132 51.42216-51.421136 51.42216z" fill="" p-id="24008"></path></svg>